# xmcd CD database file
#
# Track frame offsets:
#	150
#	17427
#	38680
#	51327
#	69249
#	84046
#	95708
#	111612
#	128284
#	150833
#	170905
#	181773
#	196363
#	210697
#	227829
#	243223
#	258823
#	277312
#	293532
#
# Disc length: 4174 seconds
#
# Revision: 0
# Processed by: cddbd v1.4PL0 Copyright (c) Steve Scherf et al.
# Submitted via: CDex 1.51
#
DISCID=f9104c13
DTITLE=Alison Krauss and Iris Dement - Together Again For The First Time
DYEAR=1900
DGENRE=Country
TTITLE0=Alison Krauss - Now That I've Found You
TTITLE1=Alison Krauss - Oh, Atlanta
TTITLE2=Iris  Dement - Let The Mystery Be
TTITLE3=Alison Krauss - Broadway
TTITLE4=Alison Krauss - Every Time You Say Goodbye
TTITLE5=Iris Dement - Hotter Than Mojave In My Heart
TTITLE6=Alison Krauss - Tonight I'll Be Lonely Too
TTITLE7=Alison Krauss - Teardrops Will Kiss The Morning Dew
TTITLE8=Iris  Dement - Our Town
TTITLE9=Alison Krauss - When God Dips His Pen Of Love In My Heart
TTITLE10=Alison Krauss - Sleep On
TTITLE11=Iris  Dement - Fifty Miles Of Elbow Room
TTITLE12=Alison Krauss - I Don't Believe You've Met My Baby
TTITLE13=Iris  Dement - Infamous Angel
TTITLE14=Alison Krauss - In The Palm Of Your Hand
TTITLE15=Iris  Dement - Mama's Opry
TTITLE16=Alison Krauss - I Will
TTITLE17=Iris  Dement - Higher Ground
TTITLE18=Alison Krauss - When You Say Nothing At All
EXTD=
EXTT0=
EXTT1=
EXTT2=
EXTT3=
EXTT4=
EXTT5=
EXTT6=
EXTT7=
EXTT8=
EXTT9=
EXTT10=
EXTT11=
EXTT12=
EXTT13=
EXTT14=
EXTT15=
EXTT16=
EXTT17=
EXTT18=
PLAYORDER=
